<?xml version="1.0" encoding="UTF-8"?>
<svg xmlns="http://www.w3.org/2000/svg" version="1.1" width="200" height="200" viewBox="0 0 200 200"><rect x="0" y="0" width="200" height="200" fill="#ffffff"/><g transform="scale(8.696)"><g transform="translate(1,1)"><path fill-rule="evenodd" d="M8 0L8 2L9 2L9 4L8 4L8 9L9 9L9 11L8 11L8 14L10 14L10 15L8 15L8 16L9 16L9 17L10 17L10 19L11 19L11 21L13 21L13 20L14 20L14 21L21 21L21 18L19 18L19 17L20 17L20 16L21 16L21 14L19 14L19 13L21 13L21 11L20 11L20 12L19 12L19 11L18 11L18 10L17 10L17 8L13 8L13 6L12 6L12 8L11 8L11 5L13 5L13 3L12 3L12 2L13 2L13 0ZM10 1L10 2L11 2L11 1ZM10 3L10 4L9 4L9 7L10 7L10 5L11 5L11 3ZM0 8L0 9L1 9L1 10L0 10L0 11L1 11L1 10L2 10L2 11L3 11L3 12L0 12L0 13L5 13L5 11L7 11L7 10L6 10L6 9L7 9L7 8L5 8L5 9L4 9L4 10L3 10L3 8ZM12 8L12 9L13 9L13 8ZM19 8L19 10L21 10L21 8ZM15 9L15 10L16 10L16 9ZM4 10L4 11L5 11L5 10ZM10 10L10 12L9 12L9 13L10 13L10 14L12 14L12 16L11 16L11 15L10 15L10 16L11 16L11 18L13 18L13 19L16 19L16 20L18 20L18 19L19 19L19 20L20 20L20 19L19 19L19 18L18 18L18 17L16 17L16 18L15 18L15 17L12 17L12 16L20 16L20 15L19 15L19 14L18 14L18 13L17 13L17 11L16 11L16 14L15 14L15 13L13 13L13 14L12 14L12 13L10 13L10 12L12 12L12 10ZM13 10L13 12L15 12L15 11L14 11L14 10ZM6 12L6 13L7 13L7 12ZM13 14L13 15L15 15L15 14ZM16 14L16 15L18 15L18 14ZM8 18L8 21L10 21L10 20L9 20L9 18ZM16 18L16 19L18 19L18 18ZM0 0L0 7L7 7L7 0ZM1 1L1 6L6 6L6 1ZM2 2L2 5L5 5L5 2ZM14 0L14 7L21 7L21 0ZM15 1L15 6L20 6L20 1ZM16 2L16 5L19 5L19 2ZM0 14L0 21L7 21L7 14ZM1 15L1 20L6 20L6 15ZM2 16L2 19L5 19L5 16Z" fill="#000000"/></g></g></svg>
