<svg xmlns="http://www.w3.org/2000/svg" xmlns:xlink="http://www.w3.org/1999/xlink" width="3600" zoomAndPan="magnify" viewBox="0 0 1440 809.999993" height="2025" preserveAspectRatio="xMidYMid meet" version="1.0"><defs><clipPath id="9e70a6a324"><path d="M 424.601562 80.527344 L 884 80.527344 L 884 605 L 424.601562 605 Z M 424.601562 80.527344 " clip-rule="nonzero"/></clipPath><clipPath id="6722312510"><path d="M 658 80.527344 L 1073.351562 80.527344 L 1073.351562 351 L 658 351 Z M 658 80.527344 " clip-rule="nonzero"/></clipPath></defs><g clip-path="url(#9e70a6a324)"><path fill="#ff914d" d="M 613.957031 350.363281 C 757.226562 350.363281 875.339844 463.507812 883.375 604.859375 C 883.671875 601.296875 883.808594 597.691406 883.808594 594.066406 L 883.808594 350.363281 C 883.808594 203.050781 763.511719 80.527344 613.957031 80.527344 L 424.648438 80.527344 L 424.648438 215.453125 C 424.648438 289.664062 485.363281 350.378906 559.574219 350.378906 L 613.957031 350.378906 Z M 613.957031 350.363281 " fill-opacity="1" fill-rule="nonzero"/></g><g clip-path="url(#6722312510)"><path fill="#216434" d="M 938.191406 80.527344 L 658.402344 80.527344 C 806.625 80.527344 928.238281 201.75 928.238281 350.363281 L 1073.117188 350.363281 L 1073.117188 215.4375 C 1073.117188 141.222656 1012.402344 80.511719 938.191406 80.511719 Z M 938.191406 80.527344 " fill-opacity="1" fill-rule="nonzero"/></g><path fill="#216434" d="M 882.835938 610.136719 C 850.433594 492.113281 741.902344 404.761719 613.957031 404.761719 L 613.957031 728.996094 L 748.882812 728.996094 C 817.660156 728.996094 874.832031 676.839844 882.835938 610.136719 Z M 882.835938 610.136719 " fill-opacity="1" fill-rule="nonzero"/></svg>